<svg width="14" height="12" viewBox="0 0 14 12" fill="none" xmlns="http://www.w3.org/2000/svg">
<path d="M6.89747 7.63547C7.35523 7.63547 7.79425 7.45689 8.11794 7.13901C8.44162 6.82114 8.62347 6.39001 8.62347 5.94047C8.62347 5.49093 8.44162 5.0598 8.11794 4.74192C7.79425 4.42405 7.35523 4.24547 6.89747 4.24547C6.43971 4.24547 6.00069 4.42405 5.677 4.74192C5.35331 5.0598 5.17147 5.49093 5.17147 5.94047C5.17147 6.39001 5.35331 6.82114 5.677 7.13901C6.00069 7.45689 6.43971 7.63547 6.89747 7.63547ZM9.91847 0.855469L12.9395 5.94047L9.91847 11.0255H3.87647L0.855469 5.94047L3.87647 0.855469H9.91847Z" stroke="#8087A2" stroke-width="1.711" stroke-linecap="round" stroke-linejoin="round"/>
</svg>
